<svg xmlns="http://www.w3.org/2000/svg" version="1.1" xmlns:xlink="http://www.w3.org/1999/xlink" xmlns:svgjs="http://svgjs.com/svgjs" x="0" y="0" viewBox="0 0 497 497" style="enable-background:new 0 0 512 512" xml:space="preserve"><g><g xmlns="http://www.w3.org/2000/svg"><path d="m4.391 492.609c4.413 4.413 10.89 5.498 16.323 3.262l35.827-14.752.884-41.543z" fill="#16202d" data-original="#16202d"/><path d="m15.881 440.46-14.752 35.826c-2.236 5.432-1.151 11.91 3.262 16.323l66.291-39.775z" fill="#2d3e53" data-original="#2d3e53"/><path d="m131.67 450.183.884-69.827-88.388 88.388 12.374 12.375z" fill="#ffd19c" data-original="#ffd19c"/><path d="m46.817 365.33-30.936 75.13 28.285 28.284 92.807-55.684z" fill="#fff0be" data-original="#fff0be"/><path d="m488.213 51.213-21.213-21.213-136.118 146.724 114.905-40.659 42.427-42.426c11.715-11.715 11.715-30.71-.001-42.426z" fill="#ff3187" data-original="#ff3187"/><path d="m467 30-21.213-21.213c-11.716-11.716-30.711-11.715-42.426 0l-42.426 42.427-14.142 141.421 120.207-120.209c11.716-11.715 11.716-30.71 0-42.426z" fill="#ff5178" data-original="#ff5178"/><path d="m297.294 136.066 116.673 31.82 31.82-31.82-21.214-21.213z" fill="#dff5ff" data-original="#dff5ff"/><path d="m424.573 114.853-63.639-63.64-31.82 31.82 21.213 106.066z" fill="#ffffff" data-original="#ffffff"/><path d="m110.457 428.97 21.213 21.213 282.297-282.297-21.213-21.213-192.812 89.483z" fill="#ffb24a" data-original="#ffb24a"/><path d="m20.171 211.001h399.229v90h-399.229z" fill="#ffd23b" transform="matrix(.707 -.707 .707 .707 -116.647 230.393)" data-original="#ffd23b"/></g></g></svg>